<?xml version="1.0" standalone="no"?><!DOCTYPE svg PUBLIC "-//W3C//DTD SVG 1.1//EN" "http://www.w3.org/Graphics/SVG/1.1/DTD/svg11.dtd"><svg t="1624625495789" class="icon" viewBox="0 0 1024 1024" version="1.1" xmlns="http://www.w3.org/2000/svg" p-id="18018" xmlns:xlink="http://www.w3.org/1999/xlink" width="400" height="400"><defs><style type="text/css"></style></defs><path d="M682.164706 361.411765h284.16A27.557647 27.557647 0 0 1 993.882353 388.969412V673.129412A320.752941 320.752941 0 0 1 673.129412 993.882353H388.969412A27.557647 27.557647 0 0 1 361.411765 966.324706V682.164706A320.752941 320.752941 0 0 1 682.164706 361.411765z" fill="#00CC99" p-id="18019" data-spm-anchor-id="a313x.7781069.0.i31" class="selected"></path><path d="M673.129412 1024H57.675294A57.825882 57.825882 0 0 1 0 966.324706V350.870588A351.171765 351.171765 0 0 1 350.870588 0h615.454118A57.825882 57.825882 0 0 1 1024 57.675294V673.129412A351.171765 351.171765 0 0 1 673.129412 1024zM60.235294 963.764706h612.894118A290.936471 290.936471 0 0 0 963.764706 673.129412V60.235294H350.870588A290.936471 290.936471 0 0 0 60.235294 350.870588z" fill="#472D22" p-id="18020"></path><path d="M662.588235 361.411765H256a30.117647 30.117647 0 0 1 0-60.235294h406.588235a30.117647 30.117647 0 0 1 0 60.235294zM783.058824 542.117647H256a30.117647 30.117647 0 0 1 0-60.235294h527.058824a30.117647 30.117647 0 0 1 0 60.235294zM632.470588 722.823529H256a30.117647 30.117647 0 0 1 0-60.235294h376.470588a30.117647 30.117647 0 0 1 0 60.235294z" fill="#472D22" p-id="18021"></path></svg>