<?xml version="1.0" standalone="no"?><!DOCTYPE svg PUBLIC "-//W3C//DTD SVG 1.1//EN" "http://www.w3.org/Graphics/SVG/1.1/DTD/svg11.dtd"><svg t="1624626755714" class="icon" viewBox="0 0 1024 1024" version="1.1" xmlns="http://www.w3.org/2000/svg" p-id="46215" xmlns:xlink="http://www.w3.org/1999/xlink" width="400" height="400"><defs><style type="text/css"></style></defs><path d="M518.88 287.61l35.48 71.88 79.32 11.52-57.4 55.96 13.55 79-70.95-37.3-70.95 37.3 13.55-79-57.4-55.96 79.33-11.52z" fill="#FFFFFF" p-id="46216"></path><path d="M783.27 952.69c-20.29 0-39.66-7.98-54.16-22.54L547.15 747.4c-13.95-14.01-36.78-14.15-50.9-0.33L310.59 928.83c-16.88 16.52-40.01 24.21-63.48 21.12-22.93-3.03-42.77-16.07-54.42-35.79-15.56-26.34-23.79-56.42-23.79-86.98V247.73c0-94.88 77.19-172.08 172.08-172.08h359.51c94.88 0 172.08 77.19 172.08 172.08v579.45c0 32.41-9.2 64.05-26.59 91.5-11.95 18.85-31.71 31.08-54.21 33.54-2.85 0.31-5.69 0.47-8.5 0.47zM521.52 667.93h0.69c27.87 0.18 54.05 11.15 73.72 30.91l181.96 182.75c2.43 2.44 5.5 2.32 6.38 2.22 2.49-0.27 3.3-1.56 3.57-1.98 10.4-16.4 15.9-35.3 15.9-54.64V247.73c0-56.93-46.32-103.25-103.25-103.25H340.97c-56.93 0-103.25 46.32-103.25 103.25v579.45c0 18.25 4.92 36.22 14.22 51.97 0.86 1.45 2.26 2.31 4.17 2.56 1.11 0.15 3.96 0.24 6.32-2.07L448.1 697.89c19.75-19.34 45.81-29.96 73.42-29.96z" fill="#231815" p-id="46217"></path><path d="M520.16 236.63l-50.49 102.3-112.9 16.41 81.69 79.63-19.28 112.44 100.98-53.09 100.97 53.09-19.28-112.44 81.69-79.63-112.9-16.41-50.48-102.3z" fill="#00CC99" p-id="46218" data-spm-anchor-id="a313x.7781069.0.i65" class="selected"></path></svg>