<?xml version="1.0" standalone="no"?><!DOCTYPE svg PUBLIC "-//W3C//DTD SVG 1.1//EN" "http://www.w3.org/Graphics/SVG/1.1/DTD/svg11.dtd"><svg t="1624720223091" class="icon" viewBox="0 0 1024 1024" version="1.1" xmlns="http://www.w3.org/2000/svg" p-id="11582" xmlns:xlink="http://www.w3.org/1999/xlink" width="400" height="400"><defs><style type="text/css"></style></defs><path d="M510.2592 76.8a432.6144 432.6144 0 0 0-288 109.6448 38.3744 38.3744 0 1 0 51.0464 57.3696A355.84 355.84 0 0 1 510.2592 153.6c196.9408 0 357.1968 160.768 357.1968 358.4s-160.256 358.4-357.1968 358.4S153.0624 709.632 153.0624 512c0-40.9856 6.8352-81.152 20.3008-119.424a38.4256 38.4256 0 0 0-72.448-25.4976A435.5072 435.5072 0 0 0 76.2624 512c0 239.9744 194.688 435.2 433.9968 435.2s433.9968-195.2256 433.9968-435.2S749.5424 76.8 510.2592 76.8z" fill="#2c2c2c" p-id="11583" data-spm-anchor-id="a313x.7781069.0.i24" class="selected"></path><path d="M510.2592 198.4768a38.4 38.4 0 0 0-38.4 38.4V512a38.4 38.4 0 0 0 38.4 38.4H782.592a38.4 38.4 0 1 0 0-76.8h-233.9584V236.8768a38.4 38.4 0 0 0-38.3744-38.4z" fill="#2c2c2c" p-id="11584" data-spm-anchor-id="a313x.7781069.0.i25" class="selected"></path></svg>