<?xml version="1.0" standalone="no"?><!DOCTYPE svg PUBLIC "-//W3C//DTD SVG 1.1//EN" "http://www.w3.org/Graphics/SVG/1.1/DTD/svg11.dtd"><svg t="1624647823305" class="icon" viewBox="0 0 1024 1024" version="1.1" xmlns="http://www.w3.org/2000/svg" p-id="6340" xmlns:xlink="http://www.w3.org/1999/xlink" width="400" height="400"><defs><style type="text/css"></style></defs><path d="M844.3 290.4c14.6 0 28.2 7.2 36.5 19.2 8.3 12.1 10.2 27.5 5.1 41.1L834 488.1l-0.1 0.1-0.1 0.1c-5.7 15.2-15.7 28.2-29 37.5s-28.9 14.3-45.1 14.4h-0.2c-76.1 0.9-187.1 2.1-283.5 2.3-24.2 0.1-41.6 0.1-56.4 0.1-39.2 0-63.6-0.2-81.5-0.6l-18.6-0.5c-6.7-27.3-17-81.7-32.1-168.2l-0.1-0.7-0.1-0.7-16.2-81.7h573.3M157.2 128H106c-10.4 0-19.6 5-25.5 12.7-4.1 5.3-6.5 12-6.5 19.3 0 17.7 14.3 32 32 32h51.3c19.3 0.1 35.9 13.7 39.7 32.7l31.5 159.1c20.9 119.9 30.9 167.5 37.3 188.2l16.1 81.2c6.4 31.9 34.3 54.9 66.8 55H798c17.7 0 32-14.3 32-32s-14.3-32-32-32H348.6c-2 0-3.8-1.4-4.2-3.4l-7.6-38.6c19.6 0.5 46.2 0.6 82.9 0.6 16.7 0 35.5 0 56.6-0.1 95.3-0.3 207.1-1.4 284.1-2.3 58-0.5 109.6-36.7 129.8-91L942 371.9c12.1-32.1 7.7-68.1-11.8-96.4-19.5-28.2-51.6-45.1-85.8-45.1H263.2l-3.6-18.2c-6.7-33.8-29.2-61-59-74.7-13.3-6.1-28-9.5-43.4-9.5zM370.2 799c9.9 0 17.9 8.1 17.9 17.9 0 7.3-4.3 13.7-11 16.5-2.2 0.9-4.5 1.4-6.8 1.4-4.8 0-9.3-1.9-12.7-5.3-5.1-5.1-6.6-12.8-3.9-19.5 2.8-6.7 9.2-11 16.5-11m0-60c-31.5 0-59.8 18.9-71.9 48-12.1 29.1-5.5 62.6 16.8 84.9 14.9 14.9 34.8 22.9 55.1 22.9 10 0 20.1-1.9 29.8-5.9 29.1-12 48.1-40.5 48.1-72 0-43-34.8-77.8-77.7-77.9h-0.2zM740.4 799c9.9 0 17.9 8.1 17.9 17.9 0 7.3-4.3 13.7-11 16.5-2.2 0.9-4.5 1.4-6.8 1.4-4.8 0-9.3-1.9-12.7-5.3-5.1-5.1-6.6-12.8-3.9-19.5 2.8-6.7 9.3-11 16.5-11m0-60c-31.5 0-59.8 18.9-71.9 48-12.1 29.1-5.5 62.6 16.8 84.9 14.9 14.9 34.8 22.9 55.1 22.9 10 0 20.1-1.9 29.8-5.9 29.1-12 48.1-40.5 48.1-72 0-43-34.8-77.8-77.7-77.9h-0.2z" p-id="6341"></path></svg>