<?xml version="1.0" standalone="no"?><!DOCTYPE svg PUBLIC "-//W3C//DTD SVG 1.1//EN" "http://www.w3.org/Graphics/SVG/1.1/DTD/svg11.dtd"><svg t="1624648984965" class="icon" viewBox="0 0 1198 1024" version="1.1" xmlns="http://www.w3.org/2000/svg" p-id="22925" xmlns:xlink="http://www.w3.org/1999/xlink" width="467.96875" height="400"><defs><style type="text/css"></style></defs><path d="M906.04365137 480.37590371H152.48667412a213.07808672 213.07808672 0 0 1-65.67475254-10.21607227 36.48597363 36.48597363 0 0 1-24.81046171-34.54005498A35.99949375 35.99949375 0 0 1 86.81192158 402.53916026a142.53853711 142.53853711 0 0 0 54.48572051-33.5670961 136.70078115 136.70078115 0 0 0 39.89133106-97.29592999A136.70078115 136.70078115 0 0 0 86.81192158 141.78606787 36.48597363 36.48597363 0 0 1 62.00145987 107.24601289 35.99949375 35.99949375 0 0 1 86.81192158 72.70595791 199.94313604 199.94313604 0 0 1 152.48667412 62.00340576h753.55697725a209.18624941 209.18624941 0 1 1 0 418.37249795zM203.56703721 407.40395644h702.47661416a137.18726104 137.18726104 0 0 0 97.29592998-39.89133105 134.7548625 134.7548625 0 0 0 39.89133105-97.29592998 136.70078115 136.70078115 0 0 0-137.18726103-135.24134239H203.0805582A208.21328964 208.21328964 0 0 1 256.59331894 271.67613418 207.72681065 207.72681065 0 0 1 203.56703721 407.40395644zM1025.23116553 961.99075654H271.67418828a210.1592083 210.1592083 0 0 1-145.94389453-60.80995547 209.6727293 209.6727293 0 0 1 145.94389453-357.56254248H1025.23116553a213.07808672 213.07808672 0 0 1 65.67475254 10.21607227 36.97245352 36.97245352 0 0 1 0 69.56658984 136.21430215 136.21430215 0 0 0-94.37705156 129.40358731 138.1602208 138.1602208 0 0 0 40.37781093 97.2959291 135.24134239 135.24134239 0 0 0 53.99924063 32.59413721 36.48597363 36.48597363 0 0 1 24.81046172 34.54005498 37.45893339 37.45893339 0 0 1-24.81046172 35.02653486 213.07808672 213.07808672 0 0 1-65.67475254 9.72959238zM271.67418828 616.59020586a136.21430215 136.21430215 0 1 0 0 272.42860341h702.47661416a207.72681065 207.72681065 0 0 1 0-272.42860341z" fill="#20002A" p-id="22926"></path></svg>