<?xml version="1.0" standalone="no"?><!DOCTYPE svg PUBLIC "-//W3C//DTD SVG 1.1//EN" "http://www.w3.org/Graphics/SVG/1.1/DTD/svg11.dtd"><svg t="1624731694805" class="icon" viewBox="0 0 1024 1024" version="1.1" xmlns="http://www.w3.org/2000/svg" p-id="23767" xmlns:xlink="http://www.w3.org/1999/xlink" width="400" height="400"><defs><style type="text/css"></style></defs><path d="M475.282 660.407V109.714a36.571 36.571 0 1 1 73.143 0v550.693a36.571 36.571 0 1 1-73.143 0" p-id="23768"></path><path d="M266.752 303.69L486.619 83.821a36.718 36.718 0 0 1 51.932 51.931L318.683 355.621a36.718 36.718 0 0 1-51.931-51.932" p-id="23769"></path><path d="M537.746 83.822L757.175 303.25a36.571 36.571 0 0 1-51.712 51.712L486.034 135.534a36.571 36.571 0 1 1 51.712-51.712m303.397 867.035H182.857A109.714 109.714 0 0 1 73.143 841.143V621.714a36.571 36.571 0 1 1 73.143 0v219.429a36.571 36.571 0 0 0 36.571 36.571h658.286a36.571 36.571 0 0 0 36.571-36.571V621.714a36.571 36.571 0 1 1 73.143 0v219.429a109.714 109.714 0 0 1-109.714 109.714" p-id="23770"></path></svg>