<?xml version="1.0" standalone="no"?><!DOCTYPE svg PUBLIC "-//W3C//DTD SVG 1.1//EN" "http://www.w3.org/Graphics/SVG/1.1/DTD/svg11.dtd"><svg t="1624743245327" class="icon" viewBox="0 0 1024 1024" version="1.1" xmlns="http://www.w3.org/2000/svg" p-id="48729" xmlns:xlink="http://www.w3.org/1999/xlink" width="400" height="400"><defs><style type="text/css"></style></defs><path d="M305.460841 257.560233C316.629252 257.560233 325.6814 248.508085 325.6814 237.339673 325.6814 134.73501 409.157769 51.272294 511.748779 51.272294 614.339789 51.272294 697.802504 134.73501 697.802504 237.339673 697.802504 248.508085 706.854652 257.560233 718.036717 257.560233 729.205129 257.560233 738.257277 248.508085 738.257277 237.339673 738.257277 112.425493 636.649306 10.817522 511.748779 10.817522 386.848252 10.817522 285.240281 112.425493 285.240281 237.339673 285.240281 248.508085 294.292429 257.560233 305.460841 257.560233M511.746048 727.011724C461.419929 727.011724 420.48729 686.079085 420.48729 635.752966 420.48729 585.440499 461.419929 544.494207 511.746048 544.494207 562.072168 544.494207 603.004807 585.440499 603.004807 635.752966 603.004807 686.079085 562.072168 727.011724 511.746048 727.011724M511.746048 504.039435C439.124065 504.039435 380.032517 563.130982 380.032517 635.752966 380.032517 701.493678 428.488133 755.970405 491.525489 765.746179L491.525489 869.238308C491.525489 880.406719 500.577637 889.458867 511.746048 889.458867 522.91446 889.458867 531.966608 880.406719 531.966608 869.238308L531.966608 765.746179C595.003964 755.970405 643.459579 701.493678 643.459579 635.752966 643.459579 563.130982 584.368032 504.039435 511.746048 504.039435M901.119481 889.091593C901.119481 941.165337 858.753244 983.545227 806.6795 983.545227L216.815327 983.545227C164.741583 983.545227 122.375346 941.165337 122.375346 889.091593L122.375346 464.432533C122.375346 412.358789 164.741583 369.978899 216.815327 369.978899L806.6795 369.978899C858.753244 369.978899 901.119481 412.358789 901.119481 464.432533L901.119481 889.091593ZM806.6795 329.537779 216.815327 329.537779C142.432066 329.537779 81.920573 390.049272 81.920573 464.432533L81.920573 889.091593C81.920573 963.474854 142.432066 1024 216.815327 1024L806.6795 1024C881.062761 1024 941.574254 963.474854 941.574254 889.091593L941.574254 464.432533C941.574254 390.049272 881.062761 329.537779 806.6795 329.537779L806.6795 329.537779Z" p-id="48730"></path></svg>