<?xml version="1.0" standalone="no"?><!DOCTYPE svg PUBLIC "-//W3C//DTD SVG 1.1//EN" "http://www.w3.org/Graphics/SVG/1.1/DTD/svg11.dtd"><svg t="1624812832076" class="icon" viewBox="0 0 1024 1024" version="1.1" xmlns="http://www.w3.org/2000/svg" p-id="7509" xmlns:xlink="http://www.w3.org/1999/xlink" width="400" height="400"><defs><style type="text/css"></style></defs><path d="M711.952 328.484l0.003 0.683a30.04 30.04 0 0 1 5.153-0.565l0.706-0.008h78.214c71.781 0 129.972 58.109 129.972 129.789 0 70.963-57.033 128.625-127.823 129.771l-2.15 0.017h-78.213c-1.669 0-3.305-0.136-4.9-0.398l0.136 36.306c0.084 0.804 0.136 1.617 0.155 2.439l0.008 0.705v41.17l0.111 29.93-0.19 0.002C712.013 713.796 699.088 726 683.308 726c-16.28 0-29.522-12.99-29.897-29.158l-0.008-0.705v-27.514l-1.26-339.918 59.81-0.221zM511.93 324c16.28 0 29.522 12.99 29.897 29.158l0.008 0.705v341.783c0 16.492-13.389 29.862-29.905 29.862-16.28 0-29.522-12.99-29.897-29.158l-0.008-0.704V353.863c0-16.493 13.389-29.863 29.905-29.863z m-118.233 21.486c15.042 6.193 22.325 23.225 16.521 38.307l-0.273 0.684L280.948 696.89c-10.14 24.56-44.805 24.587-55.13 0.39l-0.306-0.74-124.388-312.412c-6.102-15.326 1.393-32.69 16.74-38.783 15.119-6.003 32.218 1.17 38.558 16.036l0.28 0.68 97.102 243.882L354.65 361.71c6.296-15.247 23.777-22.511 39.046-16.224z m318.476 42.303l0.523 141.093a30.086 30.086 0 0 1 4.413-0.428l0.706-0.008h78.214c38.75 0 70.162-31.368 70.162-70.063 0-38.308-30.788-69.435-69.002-70.054l-1.16-0.009h-78.214c-1.929 0-3.815-0.182-5.642-0.53z" fill="#333333" p-id="7510"></path></svg>