<?xml version="1.0" standalone="no"?><!DOCTYPE svg PUBLIC "-//W3C//DTD SVG 1.1//EN" "http://www.w3.org/Graphics/SVG/1.1/DTD/svg11.dtd"><svg t="1624090177611" class="icon" viewBox="0 0 1024 1024" version="1.1" xmlns="http://www.w3.org/2000/svg" p-id="4673" xmlns:xlink="http://www.w3.org/1999/xlink" width="400" height="400"><defs><style type="text/css"></style></defs><path d="M919.5 267.3c-6.7-0.6-13.5-1.2-20.2-1.6v-82.4h-15.7c-214.8 0-324.7 116.9-363.8 170.4-32.4-49.1-139.2-178.3-365-178.3h-15.7V266c-7.2 0.3-14.5 0.7-21.7 1.2-23 1.6-41 20.9-41 43.8l47 420.3c0.3 11.6 5 22.3 13.4 30.3 9.1 8.6 21.7 13.1 34.7 12.4 4.9-0.3 9.6-0.6 14.2-0.8 46.2-2.8 79.6-4.9 160.2 20.6 57.6 18.2 111.3 46.4 159.7 83.7l9.2 7.1 9.5-6.7c62.3-44.2 131.6-75 205.9-91.5 48.7-10.9 68.6-10.5 93.8-10 12 0.2 25.5 0.5 43.3-0.6 22.6-1.3 39.2-16.8 39.7-37.1L925.6 569c0.9-8.6-5.3-16.3-13.9-17.3-8.6-0.9-16.3 5.3-17.3 13.9l-18.5 170.5-0.1 1.7c0 6.1-9.7 6.7-10.1 6.7-16.6 1-29 0.7-41 0.5-26.2-0.5-48.8-0.9-101.2 10.8-74.7 16.6-144.5 46.9-207.8 90-48.9-36.1-102.7-63.6-160.2-81.8-86.2-27.2-123.8-24.9-171.6-22-4.6 0.3-9.2 0.6-14.1 0.8-4.3 0.2-8.5-1.2-11.4-3.9-1.7-1.6-3.6-4.3-3.6-8.5l-47-420.1c0.4-6.3 5.4-11.4 11.8-11.9 86.1-6.1 170 5 249.4 32.9 58 20.3 103 45.4 132.1 64.2v226.6c0 8.7 7 15.7 15.7 15.7s15.7-7 15.7-15.7V395.3c64.4-43 131.7-71.5 205.4-87 58.6-12.3 118.7-15.7 178.6-9.9 3.4 0.3 6 3 6.3 6.2l-18.2 166.9c-0.9 8.6 5.3 16.3 13.9 17.3 8.5 0.9 16.3-5.3 17.3-13.9L954 307l0.1-1.7c0-19.8-14.9-36.1-34.6-38z m-749-1.8V207c165 4.7 258.1 83.6 301.6 135.2-25.8-13.7-56.9-27.9-92.7-40.5-67.1-23.5-137.1-35.6-208.9-36.2z m561 12.2c-52.2 11-102.7 28.8-150.8 53.2 50.3-50 141.5-111.8 287.2-116v49.6c-45.8-0.6-91.5 3.8-136.4 13.2z" fill="" p-id="4674"></path></svg>