<?xml version="1.0" standalone="no"?><!DOCTYPE svg PUBLIC "-//W3C//DTD SVG 1.1//EN" "http://www.w3.org/Graphics/SVG/1.1/DTD/svg11.dtd"><svg t="1624708351977" class="icon" viewBox="0 0 1024 1024" version="1.1" xmlns="http://www.w3.org/2000/svg" p-id="5406" data-spm-anchor-id="a313x.7781069.0.i15" xmlns:xlink="http://www.w3.org/1999/xlink" width="400" height="400"><defs><style type="text/css"></style></defs><path d="M806.4 1024l-640 0C76.8 1024 0 947.2 0 857.6l0-640c0-89.6 76.8-166.4 166.4-166.4l294.4 0c19.2 0 32 12.8 32 32S473.6 115.2 460.8 115.2L166.4 115.2C108.8 115.2 64 160 64 217.6l0 640C64 915.2 108.8 960 166.4 960l640 0c57.6 0 102.4-44.8 102.4-102.4l0-320c0-19.2 12.8-32 32-32s32 12.8 32 32l0 320C972.8 947.2 902.4 1024 806.4 1024z" p-id="5407" data-spm-anchor-id="a313x.7781069.0.i16" class="selected" fill="#ffffff"></path><path d="M992 364.8c-19.2 0-32-12.8-32-32L960 64l-268.8 0c-19.2 0-32-12.8-32-32S672 0 691.2 0l300.8 0C1011.2 0 1024 12.8 1024 32l0 300.8C1024 352 1011.2 364.8 992 364.8z" p-id="5408" data-spm-anchor-id="a313x.7781069.0.i18" class="selected" fill="#ffffff"></path><path d="M428.8 627.2c-6.4 0-19.2 0-25.6-6.4-12.8-12.8-12.8-32 0-44.8l563.2-563.2c12.8-12.8 32-12.8 44.8 0s12.8 32 0 44.8L454.4 620.8C448 627.2 435.2 627.2 428.8 627.2z" p-id="5409" data-spm-anchor-id="a313x.7781069.0.i17" class="selected" fill="#ffffff"></path></svg>