<?xml version="1.0" standalone="no"?><!DOCTYPE svg PUBLIC "-//W3C//DTD SVG 1.1//EN" "http://www.w3.org/Graphics/SVG/1.1/DTD/svg11.dtd"><svg t="1624630446504" class="icon" viewBox="0 0 1097 1024" version="1.1" xmlns="http://www.w3.org/2000/svg" p-id="56327" xmlns:xlink="http://www.w3.org/1999/xlink" width="428.515625" height="400"><defs><style type="text/css"></style></defs><path d="M187.136 1000.155429a155.355429 155.355429 0 0 1-154.88-154.88v-365.202286A155.318857 155.318857 0 0 1 187.136 325.12a155.318857 155.318857 0 0 1 154.88 154.916571v365.202286a155.355429 155.355429 0 0 1-154.88 154.88M548.571429 1000.155429a155.355429 155.355429 0 0 1-154.88-154.88V178.761143A155.355429 155.355429 0 0 1 548.571429 23.844571a155.355429 155.355429 0 0 1 154.88 154.916572v666.514286A155.355429 155.355429 0 0 1 548.571429 1000.155429" fill="#ffffff" p-id="56328" data-spm-anchor-id="a313x.7781069.0.i85" class="selected"></path><path d="M910.006857 1000.155429a155.355429 155.355429 0 0 1-154.88-154.88v-165.522286a155.355429 155.355429 0 0 1 154.88-154.88 155.355429 155.355429 0 0 1 154.88 154.88v165.522286a155.355429 155.355429 0 0 1-154.88 154.88" fill="#ffffff" p-id="56329" data-spm-anchor-id="a313x.7781069.0.i86" class="selected"></path></svg>