<?xml version="1.0" standalone="no"?><!DOCTYPE svg PUBLIC "-//W3C//DTD SVG 1.1//EN" "http://www.w3.org/Graphics/SVG/1.1/DTD/svg11.dtd"><svg t="1624730082191" class="icon" viewBox="0 0 1024 1024" version="1.1" xmlns="http://www.w3.org/2000/svg" p-id="17427" data-spm-anchor-id="a313x.7781069.0.i47" xmlns:xlink="http://www.w3.org/1999/xlink" width="400" height="400"><defs><style type="text/css"></style></defs><path d="M512 2.56C231.424 2.56 3.584 229.888 3.584 510.976S231.424 1018.88 512 1018.88s508.416-227.328 508.416-508.416S793.088 2.56 512 2.56z m0 941.568c-239.616 0-433.664-194.048-433.664-433.664C78.336 270.848 272.384 76.8 512 76.8s433.664 194.048 433.664 433.664-194.048 433.664-433.664 433.664z" fill="#00cc99" p-id="17428" data-spm-anchor-id="a313x.7781069.0.i48" class="selected"></path><path d="M304.128 790.016L476.16 717.312l-171.008-124.416-16.384 185.856c-0.512 8.192 7.68 14.336 15.36 11.264z m14.848-37.376l12.288-110.08c0.512-1.024 1.024-1.536 2.048-0.512l88.064 64c1.024 0.512 1.024 1.536 0 2.048l-100.864 45.568c-1.024-0.512-1.536-0.512-1.536-1.024zM716.8 311.296l-99.84-72.192c-19.456-14.336-47.104-9.728-61.44 9.728l-250.368 344.064L476.16 717.312l250.368-344.064c14.336-19.968 10.24-47.616-9.728-61.952zM452.608 665.6l-91.136-66.048L527.36 371.712l91.136 66.048L452.608 665.6z m221.184-304.64l-28.672 39.424-91.136-66.048 28.672-38.912c7.68-10.752 23.04-13.312 33.792-5.12l51.712 37.376c11.264 7.168 13.824 22.528 5.632 33.28z" fill="#00cc99" p-id="17429" data-spm-anchor-id="a313x.7781069.0.i49" class="selected"></path></svg>