<?xml version="1.0" standalone="no"?><!DOCTYPE svg PUBLIC "-//W3C//DTD SVG 1.1//EN" "http://www.w3.org/Graphics/SVG/1.1/DTD/svg11.dtd"><svg t="1624651145768" class="icon" viewBox="0 0 1024 1024" version="1.1" xmlns="http://www.w3.org/2000/svg" p-id="45954" xmlns:xlink="http://www.w3.org/1999/xlink" width="400" height="400"><defs><style type="text/css"></style></defs><path d="M864 64a96 96 0 0 1 96 96v704a96 96 0 0 1-96 96H160a96 96 0 0 1-96-96V160a96 96 0 0 1 96-96z m0 64H160a32 32 0 0 0-32 32v704a32 32 0 0 0 32 32h704a32 32 0 0 0 32-32V160a32 32 0 0 0-32-32z m-148.992 187.136a40.96 40.96 0 0 1 56.64 0l1.184 1.152a37.568 37.568 0 0 1-1.152 53.12l-292.736 280.32-16.416 15.744a58.176 58.176 0 0 1-80.48 0l-129.728-124.224-1.152-1.152a37.568 37.568 0 0 1 1.152-53.12 40.96 40.96 0 0 1 56.64 0l113.312 108.48z" p-id="45955" data-spm-anchor-id="a313x.7781069.0.i41" class="selected" fill="#00CC99"></path></svg>