<?xml version="1.0" standalone="no"?><!DOCTYPE svg PUBLIC "-//W3C//DTD SVG 1.1//EN" "http://www.w3.org/Graphics/SVG/1.1/DTD/svg11.dtd"><svg t="1624741449077" class="icon" viewBox="0 0 1024 1024" version="1.1" xmlns="http://www.w3.org/2000/svg" p-id="45614" xmlns:xlink="http://www.w3.org/1999/xlink" width="400" height="400"><defs><style type="text/css"></style></defs><path d="M832 832a32 32 0 0 1 3.744 63.776L832 896H192a32 32 0 0 1-3.744-63.776L192 832h640zM510.528 144h1.504l4.256 0.288 2.816 0.512 4.704 1.472 1.824 0.768a32.896 32.896 0 0 1 11.424 9.024c0.736 0.96 1.472 1.952 2.112 3.04l1.248 2.176 256.544 545.088a32 32 0 0 1-56.128 30.528l-1.792-3.264-96.832-205.76L640 528h-256l-2.24-0.128-96.8 205.76a32 32 0 0 1-59.296-23.776l1.376-3.488 256-544a32.096 32.096 0 0 1 10.432-12.48l2.24-1.44 2.656-1.408 2.528-1.056 3.264-0.992 4.032-0.768 2.336-0.192zM512 251.168L411.808 464h200.352L512 251.136z" p-id="45615"></path></svg>